<svg xmlns="http://www.w3.org/2000/svg" width="294.93304443359375" height="296.3905334472656" viewBox="-55.271568298339844 -39.18031692504883 294.93304443359375 296.3905334472656"><title>Neo4j Graph Visualization</title><desc>Created using Neo4j (http://www.neo4j.com/)</desc><g class="layer relationships"><g class="relationship" transform="translate(125.96133351327128 228.2102237082853) rotate(252.29331984720898)"><path class="outline" fill="#A5ABB6" stroke="none" d="M 25 0.5 L 35.33156938135583 0.5 L 35.33156938135583 -0.5 L 25 -0.5 Z M 80.89406938135582 0.5 L 91.22563876271165 0.5 L 91.22563876271165 3.5 L 98.22563876271165 0 L 91.22563876271165 -3.5 L 91.22563876271165 -0.5 L 80.89406938135582 -0.5 Z"/><text text-anchor="middle" pointer-events="none" font-size="8px" fill="#000000" x="58.11281938135583" y="3" transform="rotate(180 58.11281938135583 0)" font-family="sans-serif">ACTED_IN</text></g><g class="relationship" transform="translate(210.66148835186823 96.21806068270827) rotate(533.1836753760481)"><path class="outline" fill="#A5ABB6" stroke="none" d="M 25 0.5 L 35.24287375969571 0.5 L 35.24287375969571 -0.5 L 25 -0.5 Z M 80.80537375969571 0.5 L 91.04824751939142 0.5 L 91.04824751939142 3.5 L 98.04824751939142 0 L 91.04824751939142 -3.5 L 91.04824751939142 -0.5 L 80.80537375969571 -0.5 Z"/><text text-anchor="middle" pointer-events="none" font-size="8px" fill="#000000" x="58.02412375969571" y="3" transform="rotate(180 58.02412375969571 0)" font-family="sans-serif">ACTED_IN</text></g><g class="relationship" transform="translate(194.41215978494347 174.37035699740332) rotate(210.96000811800275)"><path class="outline" fill="#A5ABB6" stroke="none" d="M 25 0.5 L 35.48312154542344 0.5 L 35.48312154542344 -0.5 L 25 -0.5 Z M 81.04562154542344 0.5 L 91.52874309084687 0.5 L 91.52874309084687 3.5 L 98.52874309084687 0 L 91.52874309084687 -3.5 L 91.52874309084687 -0.5 L 81.04562154542344 -0.5 Z"/><text text-anchor="middle" pointer-events="none" font-size="8px" fill="#000000" x="58.26437154542344" y="3" transform="rotate(180 58.26437154542344 0)" font-family="sans-serif">ACTED_IN</text></g><g class="relationship" transform="translate(178.97837814581163 25.925612796298694) rotate(496.8283338279732)"><path class="outline" fill="#A5ABB6" stroke="none" d="M 25 0.5 L 40.65532388454006 0.5 L 40.65532388454006 -0.5 L 25 -0.5 Z M 76.42876138454005 0.5 L 92.08408526908012 0.5 L 92.08408526908012 3.5 L 99.08408526908012 0 L 92.08408526908012 -3.5 L 92.08408526908012 -0.5 L 76.42876138454005 -0.5 Z"/><text text-anchor="middle" pointer-events="none" font-size="8px" fill="#000000" x="58.54204263454006" y="3" transform="rotate(180 58.54204263454006 0)" font-family="sans-serif">WROTE</text></g><g class="relationship" transform="translate(110.83488165128708 -10.180317555419565) rotate(460.46584479952736)"><path class="outline" fill="#A5ABB6" stroke="none" d="M 25 0.5 L 35.24361180241831 0.5 L 35.24361180241831 -0.5 L 25 -0.5 Z M 80.80611180241831 0.5 L 91.04972360483661 0.5 L 91.04972360483661 3.5 L 98.04972360483661 0 L 91.04972360483661 -3.5 L 91.04972360483661 -0.5 L 80.80611180241831 -0.5 Z"/><text text-anchor="middle" pointer-events="none" font-size="8px" fill="#000000" x="58.02486180241831" y="3" transform="rotate(180 58.02486180241831 0)" font-family="sans-serif">ACTED_IN</text></g><g class="relationship" transform="translate(31.81056369104123 1.1379277729498407) rotate(422.6752139733566)"><path class="outline" fill="#A5ABB6" stroke="none" d="M 25 0.5 L 35.448844396403295 0.5 L 35.448844396403295 -0.5 L 25 -0.5 Z M 81.0113443964033 0.5 L 91.46018879280659 0.5 L 91.46018879280659 3.5 L 98.46018879280659 0 L 91.46018879280659 -3.5 L 91.46018879280659 -0.5 L 81.0113443964033 -0.5 Z"/><text text-anchor="middle" pointer-events="none" font-size="8px" fill="#000000" x="58.230094396403295" y="3" font-family="sans-serif">ACTED_IN</text></g><g class="relationship" transform="translate(-26.271569650742723 66.03635718654226) rotate(381.3194951087892)"><path class="outline" fill="#A5ABB6" stroke="none" d="M 25 0.5 L 35.310926126380366 0.5 L 35.310926126380366 -0.5 L 25 -0.5 Z M 80.87342612638037 0.5 L 91.18435225276073 0.5 L 91.18435225276073 3.5 L 98.18435225276073 0 L 91.18435225276073 -3.5 L 91.18435225276073 -0.5 L 80.87342612638037 -0.5 Z"/><text text-anchor="middle" pointer-events="none" font-size="8px" fill="#000000" x="58.092176126380366" y="3" font-family="sans-serif">ACTED_IN</text></g><g class="relationship" transform="translate(-24.956798776860303 156.22004197088623) rotate(338.18907395124234)"><path class="outline" fill="#A5ABB6" stroke="none" d="M 25 0.5 L 34.14793704857662 0.5 L 34.14793704857662 -0.5 L 25 -0.5 Z M 81.03856204857662 0.5 L 90.18649909715324 0.5 L 90.18649909715324 3.5 L 97.18649909715324 0 L 90.18649909715324 -3.5 L 90.18649909715324 -0.5 L 81.03856204857662 -0.5 Z"/><text text-anchor="middle" pointer-events="none" font-size="8px" fill="#000000" x="57.59324954857662" y="3" font-family="sans-serif">DIRECTED</text></g><g class="relationship" transform="translate(36.059693691109594 221.20813328909367) rotate(295.4034835908395)"><path class="outline" fill="#A5ABB6" stroke="none" d="M 25 0.5 L 39.71409747807235 0.5 L 39.71409747807235 -0.5 L 25 -0.5 Z M 75.48753497807235 0.5 L 90.2016324561447 0.5 L 90.2016324561447 3.5 L 97.2016324561447 0 L 90.2016324561447 -3.5 L 90.2016324561447 -0.5 L 75.48753497807235 -0.5 Z"/><text text-anchor="middle" pointer-events="none" font-size="8px" fill="#000000" x="57.60081622807235" y="3" font-family="sans-serif">WROTE</text></g></g><g class="layer nodes"><g class="node" transform="translate(88.48297878230976,110.82227298446305)"><circle class="outline" cx="0" cy="0" r="25" fill="#57C7E3" stroke="#23b3d7" stroke-width="2px"/><text text-anchor="middle" pointer-events="none" font-family="sans-serif" dy="1.5625" font-size="25" fill="#2A2C34"/><text text-anchor="middle" pointer-events="none" font-family="sans-serif" dy="1.5625" font-size="25" fill="#2A2C34"/><text text-anchor="middle" pointer-events="none" font-family="sans-serif" dy="1.5625" font-size="25" fill="#2A2C34"/><text text-anchor="middle" pointer-events="none" x="0" y="-5" font-size="10px" fill="#2A2C34" font-family="sans-serif"> Captain</text><text text-anchor="middle" pointer-events="none" x="0" y="5" font-size="10px" fill="#2A2C34" font-family="sans-serif"> America:</text><text text-anchor="middle" pointer-events="none" x="0" y="15" font-size="10px" fill="#2A2C34" font-family="sans-serif"> THe F…</text></g><g class="node" transform="translate(125.96133351327128,228.2102237082853)"><circle class="outline" cx="0" cy="0" r="25" fill="#F79767" stroke="#f36924" stroke-width="2px"/><text text-anchor="middle" pointer-events="none" font-family="sans-serif" dy="1.5625" font-size="25" fill="#FFFFFF"/><text text-anchor="middle" pointer-events="none" font-family="sans-serif" dy="1.5625" font-size="25" fill="#FFFFFF"/><text text-anchor="middle" pointer-events="none" x="0" y="0" font-size="10px" fill="#FFFFFF" font-family="sans-serif"> Tommy</text><text text-anchor="middle" pointer-events="none" x="0" y="10" font-size="10px" fill="#FFFFFF" font-family="sans-serif"> Lee Jon…</text></g><g class="node" transform="translate(210.66148835186823,96.21806068270827)"><circle class="outline" cx="0" cy="0" r="25" fill="#F79767" stroke="#f36924" stroke-width="2px"/><text text-anchor="middle" pointer-events="none" font-family="sans-serif" dy="1.5625" font-size="25" fill="#FFFFFF"/><text text-anchor="middle" pointer-events="none" font-family="sans-serif" dy="1.5625" font-size="25" fill="#FFFFFF"/><text text-anchor="middle" pointer-events="none" x="0" y="0" font-size="10px" fill="#FFFFFF" font-family="sans-serif"> Chris</text><text text-anchor="middle" pointer-events="none" x="0" y="10" font-size="10px" fill="#FFFFFF" font-family="sans-serif"> Evans</text></g><g class="node" transform="translate(194.41215978494347,174.37035699740332)"><circle class="outline" cx="0" cy="0" r="25" fill="#F79767" stroke="#f36924" stroke-width="2px"/><text text-anchor="middle" pointer-events="none" font-family="sans-serif" dy="1.5625" font-size="25" fill="#FFFFFF"/><text text-anchor="middle" pointer-events="none" font-family="sans-serif" dy="1.5625" font-size="25" fill="#FFFFFF"/><text text-anchor="middle" pointer-events="none" x="0" y="0" font-size="10px" fill="#FFFFFF" font-family="sans-serif"> Dominic</text><text text-anchor="middle" pointer-events="none" x="0" y="10" font-size="10px" fill="#FFFFFF" font-family="sans-serif"> Cooper</text></g><g class="node" transform="translate(178.97837814581163,25.925612796298694)"><circle class="outline" cx="0" cy="0" r="25" fill="#F79767" stroke="#f36924" stroke-width="2px"/><text text-anchor="middle" pointer-events="none" font-family="sans-serif" dy="1.5625" font-size="25" fill="#FFFFFF"/><text text-anchor="middle" pointer-events="none" x="0" y="5" font-size="10px" fill="#FFFFFF" font-family="sans-serif"> Christop…</text></g><g class="node" transform="translate(110.83488165128708,-10.180317555419565)"><circle class="outline" cx="0" cy="0" r="25" fill="#F79767" stroke="#f36924" stroke-width="2px"/><text text-anchor="middle" pointer-events="none" font-family="sans-serif" dy="1.5625" font-size="25" fill="#FFFFFF"/><text text-anchor="middle" pointer-events="none" font-family="sans-serif" dy="1.5625" font-size="25" fill="#FFFFFF"/><text text-anchor="middle" pointer-events="none" x="0" y="0" font-size="10px" fill="#FFFFFF" font-family="sans-serif"> Hayley</text><text text-anchor="middle" pointer-events="none" x="0" y="10" font-size="10px" fill="#FFFFFF" font-family="sans-serif"> Atwell</text></g><g class="node" transform="translate(31.81056369104123,1.1379277729498407)"><circle class="outline" cx="0" cy="0" r="25" fill="#F79767" stroke="#f36924" stroke-width="2px"/><text text-anchor="middle" pointer-events="none" font-family="sans-serif" dy="1.5625" font-size="25" fill="#FFFFFF"/><text text-anchor="middle" pointer-events="none" font-family="sans-serif" dy="1.5625" font-size="25" fill="#FFFFFF"/><text text-anchor="middle" pointer-events="none" x="0" y="0" font-size="10px" fill="#FFFFFF" font-family="sans-serif"> Hugo</text><text text-anchor="middle" pointer-events="none" x="0" y="10" font-size="10px" fill="#FFFFFF" font-family="sans-serif"> Weaving</text></g><g class="node" transform="translate(-26.271569650742723,66.03635718654226)"><circle class="outline" cx="0" cy="0" r="25" fill="#F79767" stroke="#f36924" stroke-width="2px"/><text text-anchor="middle" pointer-events="none" font-family="sans-serif" dy="1.5625" font-size="25" fill="#FFFFFF"/><text text-anchor="middle" pointer-events="none" font-family="sans-serif" dy="1.5625" font-size="25" fill="#FFFFFF"/><text text-anchor="middle" pointer-events="none" x="0" y="0" font-size="10px" fill="#FFFFFF" font-family="sans-serif"> Sebastan</text><text text-anchor="middle" pointer-events="none" x="0" y="10" font-size="10px" fill="#FFFFFF" font-family="sans-serif"> Stan</text></g><g class="node" transform="translate(-24.956798776860303,156.22004197088623)"><circle class="outline" cx="0" cy="0" r="25" fill="#F79767" stroke="#f36924" stroke-width="2px"/><text text-anchor="middle" pointer-events="none" font-family="sans-serif" dy="1.5625" font-size="25" fill="#FFFFFF"/><text text-anchor="middle" pointer-events="none" font-family="sans-serif" dy="1.5625" font-size="25" fill="#FFFFFF"/><text text-anchor="middle" pointer-events="none" x="0" y="0" font-size="10px" fill="#FFFFFF" font-family="sans-serif"> Joe</text><text text-anchor="middle" pointer-events="none" x="0" y="10" font-size="10px" fill="#FFFFFF" font-family="sans-serif"> Johnston</text></g><g class="node" transform="translate(36.059693691109594,221.20813328909367)"><circle class="outline" cx="0" cy="0" r="25" fill="#F79767" stroke="#f36924" stroke-width="2px"/><text text-anchor="middle" pointer-events="none" font-family="sans-serif" dy="1.5625" font-size="25" fill="#FFFFFF"/><text text-anchor="middle" pointer-events="none" font-family="sans-serif" dy="1.5625" font-size="25" fill="#FFFFFF"/><text text-anchor="middle" pointer-events="none" x="0" y="0" font-size="10px" fill="#FFFFFF" font-family="sans-serif"> Stephen</text><text text-anchor="middle" pointer-events="none" x="0" y="10" font-size="10px" fill="#FFFFFF" font-family="sans-serif"> McFeely</text></g></g></svg>