<svg xmlns="http://www.w3.org/2000/svg" width="257.5564880371094" height="257.8199768066406" viewBox="-18.276613235473633 -22.66937828063965 257.5564880371094 257.8199768066406"><title>Neo4j Graph Visualization</title><desc>Created using Neo4j (http://www.neo4j.com/)</desc><g class="layer relationships"><g class="relationship" transform="translate(112.69179884664912 117.51312089191615) rotate(413.99680277554705)"><path class="outline" fill="#A5ABB6" stroke="none" d="M 25 0.5 L 28.50193842804846 0.5 L 28.50193842804846 -0.5 L 25 -0.5 Z M 74.06443842804846 0.5 L 77.56637685609692 0.5 L 77.56637685609692 3.5 L 84.56637685609692 0 L 77.56637685609692 -3.5 L 77.56637685609692 -0.5 L 74.06443842804846 -0.5 Z"/><text text-anchor="middle" pointer-events="none" font-size="8px" fill="#000000" x="51.28318842804846" y="3" font-family="sans-serif">ACTED_IN</text></g><g class="relationship" transform="translate(112.69179884664912 117.51312089191615) rotate(330.65836350307734)"><path class="outline" fill="#A5ABB6" stroke="none" d="M 25 0.5 L 29.69360201250347 0.5 L 29.69360201250347 -0.5 L 25 -0.5 Z M 75.25610201250348 0.5 L 79.94970402500694 0.5 L 79.94970402500694 3.5 L 86.94970402500694 0 L 79.94970402500694 -3.5 L 79.94970402500694 -0.5 L 75.25610201250348 -0.5 Z"/><text text-anchor="middle" pointer-events="none" font-size="8px" fill="#000000" x="52.47485201250347" y="3" font-family="sans-serif">ACTED_IN</text></g><g class="relationship" transform="translate(112.69179884664912 117.51312089191615) rotate(263.8962820099539)"><path class="outline" fill="#A5ABB6" stroke="none" d="M 25 0.5 L 29.626940221241036 0.5 L 29.626940221241036 -0.5 L 25 -0.5 Z M 75.18944022124103 0.5 L 79.81638044248207 0.5 L 79.81638044248207 3.5 L 86.81638044248207 0 L 79.81638044248207 -3.5 L 79.81638044248207 -0.5 L 75.18944022124103 -0.5 Z"/><text text-anchor="middle" pointer-events="none" font-size="8px" fill="#000000" x="52.408190221241036" y="3" transform="rotate(180 52.408190221241036 0)" font-family="sans-serif">ACTED_IN</text></g><g class="relationship" transform="translate(112.69179884664912 117.51312089191615) rotate(204.20525713839015)"><path class="outline" fill="#A5ABB6" stroke="none" d="M 25 0.5 L 29.61742807415041 0.5 L 29.61742807415041 -0.5 L 25 -0.5 Z M 75.17992807415041 0.5 L 79.79735614830082 0.5 L 79.79735614830082 3.5 L 86.79735614830082 0 L 79.79735614830082 -3.5 L 79.79735614830082 -0.5 L 75.17992807415041 -0.5 Z"/><text text-anchor="middle" pointer-events="none" font-size="8px" fill="#000000" x="52.39867807415041" y="3" transform="rotate(180 52.39867807415041 0)" font-family="sans-serif">ACTED_IN</text></g><g class="relationship" transform="translate(112.69179884664912 117.51312089191615) rotate(497.40147323689234)"><path class="outline" fill="#A5ABB6" stroke="none" d="M 25 0.5 L 29.6731414444141 0.5 L 29.6731414444141 -0.5 L 25 -0.5 Z M 75.2356414444141 0.5 L 79.9087828888282 0.5 L 79.9087828888282 3.5 L 86.9087828888282 0 L 79.9087828888282 -3.5 L 79.9087828888282 -0.5 L 75.2356414444141 -0.5 Z"/><text text-anchor="middle" pointer-events="none" font-size="8px" fill="#000000" x="52.4543914444141" y="3" transform="rotate(180 52.4543914444141 0)" font-family="sans-serif">ACTED_IN</text></g></g><g class="layer nodes"><g class="node" transform="translate(112.69179884664912,117.51312089191615)"><circle class="outline" cx="0" cy="0" r="25" fill="#F79767" stroke="#f36924" stroke-width="2px"/><text text-anchor="middle" pointer-events="none" font-family="sans-serif" dy="1.5625" font-size="25" fill="#FFFFFF"/><text text-anchor="middle" pointer-events="none" font-family="sans-serif" dy="1.5625" font-size="25" fill="#FFFFFF"/><text text-anchor="middle" pointer-events="none" x="0" y="0" font-size="10px" fill="#FFFFFF" font-family="sans-serif"> Hugo</text><text text-anchor="middle" pointer-events="none" x="0" y="10" font-size="10px" fill="#FFFFFF" font-family="sans-serif"> Weaving</text></g><g class="node" transform="translate(177.09824556628968,206.15058790402313)"><circle class="outline" cx="0" cy="0" r="25" fill="#57C7E3" stroke="#23b3d7" stroke-width="2px"/><text text-anchor="middle" pointer-events="none" font-family="sans-serif" dy="1.5625" font-size="25" fill="#2A2C34"/><text text-anchor="middle" pointer-events="none" font-family="sans-serif" dy="1.5625" font-size="25" fill="#2A2C34"/><text text-anchor="middle" pointer-events="none" x="0" y="0" font-size="10px" fill="#2A2C34" font-family="sans-serif"> Cloud</text><text text-anchor="middle" pointer-events="none" x="0" y="10" font-size="10px" fill="#2A2C34" font-family="sans-serif"> Atlas</text></g><g class="node" transform="translate(210.27985719472466,62.65596913264907)"><circle class="outline" cx="0" cy="0" r="25" fill="#57C7E3" stroke="#23b3d7" stroke-width="2px"/><text text-anchor="middle" pointer-events="none" font-family="sans-serif" dy="1.5625" font-size="25" fill="#2A2C34"/><text text-anchor="middle" pointer-events="none" font-family="sans-serif" dy="1.5625" font-size="25" fill="#2A2C34"/><text text-anchor="middle" pointer-events="none" x="0" y="0" font-size="10px" fill="#2A2C34" font-family="sans-serif"> V for</text><text text-anchor="middle" pointer-events="none" x="0" y="10" font-size="10px" fill="#2A2C34" font-family="sans-serif"> Vendetta</text></g><g class="node" transform="translate(100.80252023154468,6.330622317408889)"><circle class="outline" cx="0" cy="0" r="25" fill="#57C7E3" stroke="#23b3d7" stroke-width="2px"/><text text-anchor="middle" pointer-events="none" font-family="sans-serif" dy="1.5625" font-size="25" fill="#2A2C34"/><text text-anchor="middle" pointer-events="none" font-family="sans-serif" dy="1.5625" font-size="25" fill="#2A2C34"/><text text-anchor="middle" pointer-events="none" font-family="sans-serif" dy="1.5625" font-size="25" fill="#2A2C34"/><text text-anchor="middle" pointer-events="none" x="0" y="-5" font-size="10px" fill="#2A2C34" font-family="sans-serif"> The</text><text text-anchor="middle" pointer-events="none" x="0" y="5" font-size="10px" fill="#2A2C34" font-family="sans-serif"> Matrix</text><text text-anchor="middle" pointer-events="none" x="0" y="15" font-size="10px" fill="#2A2C34" font-family="sans-serif"> Revol…</text></g><g class="node" transform="translate(10.723386746180125,71.67545324336595)"><circle class="outline" cx="0" cy="0" r="25" fill="#57C7E3" stroke="#23b3d7" stroke-width="2px"/><text text-anchor="middle" pointer-events="none" font-family="sans-serif" dy="1.5625" font-size="25" fill="#2A2C34"/><text text-anchor="middle" pointer-events="none" font-family="sans-serif" dy="1.5625" font-size="25" fill="#2A2C34"/><text text-anchor="middle" pointer-events="none" font-family="sans-serif" dy="1.5625" font-size="25" fill="#2A2C34"/><text text-anchor="middle" pointer-events="none" x="0" y="-5" font-size="10px" fill="#2A2C34" font-family="sans-serif"> The</text><text text-anchor="middle" pointer-events="none" x="0" y="5" font-size="10px" fill="#2A2C34" font-family="sans-serif"> Matrix</text><text text-anchor="middle" pointer-events="none" x="0" y="15" font-size="10px" fill="#2A2C34" font-family="sans-serif"> Reloa…</text></g><g class="node" transform="translate(30.314122061107597,193.2593686872739)"><circle class="outline" cx="0" cy="0" r="25" fill="#57C7E3" stroke="#23b3d7" stroke-width="2px"/><text text-anchor="middle" pointer-events="none" font-family="sans-serif" dy="1.5625" font-size="25" fill="#2A2C34"/><text text-anchor="middle" pointer-events="none" font-family="sans-serif" dy="1.5625" font-size="25" fill="#2A2C34"/><text text-anchor="middle" pointer-events="none" x="0" y="0" font-size="10px" fill="#2A2C34" font-family="sans-serif"> The</text><text text-anchor="middle" pointer-events="none" x="0" y="10" font-size="10px" fill="#2A2C34" font-family="sans-serif"> Matrix</text></g></g></svg>