<svg xmlns="http://www.w3.org/2000/svg" width="251.18231201171875" height="255.54913330078125" viewBox="-29.06096649169922 -20.79416275024414 251.18231201171875 255.54913330078125"><title>Neo4j Graph Visualization</title><desc>Created using Neo4j (http://www.neo4j.com/)</desc><g class="layer relationships"><g class="relationship" transform="translate(148.3872309620645 205.7549679415867) rotate(234.7120957420742)"><path class="outline" fill="#A5ABB6" stroke="none" d="M 25 0.5 L 29.702299387959876 0.5 L 29.702299387959876 -0.5 L 25 -0.5 Z M 75.26479938795987 0.5 L 79.96709877591975 0.5 L 79.96709877591975 3.5 L 86.96709877591975 0 L 79.96709877591975 -3.5 L 79.96709877591975 -0.5 L 75.26479938795987 -0.5 Z"/><text text-anchor="middle" pointer-events="none" font-size="8px" fill="#000000" x="52.483549387959876" y="3" transform="rotate(180 52.483549387959876 0)" font-family="sans-serif">ACTED_IN</text></g><g class="relationship" transform="translate(193.12136016210314 91.10051044443051) rotate(527.9984070484558)"><path class="outline" fill="#A5ABB6" stroke="none" d="M 25 0.5 L 29.64922748175536 0.5 L 29.64922748175536 -0.5 L 25 -0.5 Z M 75.21172748175536 0.5 L 79.86095496351072 0.5 L 79.86095496351072 3.5 L 86.86095496351072 0 L 79.86095496351072 -3.5 L 79.86095496351072 -0.5 L 75.21172748175536 -0.5 Z"/><text text-anchor="middle" pointer-events="none" font-size="8px" fill="#000000" x="52.43047748175536" y="3" transform="rotate(180 52.43047748175536 0)" font-family="sans-serif">ACTED_IN</text></g><g class="relationship" transform="translate(118.88834311467421 8.205837207759203) rotate(468.3367147139505)"><path class="outline" fill="#A5ABB6" stroke="none" d="M 25 0.5 L 29.635428643577974 0.5 L 29.635428643577974 -0.5 L 25 -0.5 Z M 75.19792864357797 0.5 L 79.83335728715595 0.5 L 79.83335728715595 3.5 L 86.83335728715595 0 L 79.83335728715595 -3.5 L 79.83335728715595 -0.5 L 75.19792864357797 -0.5 Z"/><text text-anchor="middle" pointer-events="none" font-size="8px" fill="#000000" x="52.416678643577974" y="3" transform="rotate(180 52.416678643577974 0)" font-family="sans-serif">ACTED_IN</text></g><g class="relationship" transform="translate(-0.06096665363002188 40.151797693680784) rotate(401.5378319545697)"><path class="outline" fill="#A5ABB6" stroke="none" d="M 25 0.5 L 29.673613384143614 0.5 L 29.673613384143614 -0.5 L 25 -0.5 Z M 75.23611338414361 0.5 L 79.90972676828723 0.5 L 79.90972676828723 3.5 L 86.90972676828723 0 L 79.90972676828723 -3.5 L 79.90972676828723 -0.5 L 75.23611338414361 -0.5 Z"/><text text-anchor="middle" pointer-events="none" font-size="8px" fill="#000000" x="52.454863384143614" y="3" font-family="sans-serif">ACTED_IN</text></g><g class="relationship" transform="translate(2.245145758745491 187.57350659937788) rotate(318.0522734064494)"><path class="outline" fill="#A5ABB6" stroke="none" d="M 25 0.5 L 28.481633696165503 0.5 L 28.481633696165503 -0.5 L 25 -0.5 Z M 74.0441336961655 0.5 L 77.525767392331 0.5 L 77.525767392331 3.5 L 84.525767392331 0 L 77.525767392331 -3.5 L 77.525767392331 -0.5 L 74.0441336961655 -0.5 Z"/><text text-anchor="middle" pointer-events="none" font-size="8px" fill="#000000" x="51.2628836961655" y="3" font-family="sans-serif">ACTED_IN</text></g></g><g class="layer nodes"><g class="node" transform="translate(148.3872309620645,205.7549679415867)"><circle class="outline" cx="0" cy="0" r="25" fill="#F79767" stroke="#f36924" stroke-width="2px"/><text text-anchor="middle" pointer-events="none" font-family="sans-serif" dy="1.5625" font-size="25" fill="#FFFFFF"/><text text-anchor="middle" pointer-events="none" font-family="sans-serif" dy="1.5625" font-size="25" fill="#FFFFFF"/><text text-anchor="middle" pointer-events="none" x="0" y="0" font-size="10px" fill="#FFFFFF" font-family="sans-serif"> Emil</text><text text-anchor="middle" pointer-events="none" x="0" y="10" font-size="10px" fill="#FFFFFF" font-family="sans-serif"> Eifrem</text></g><g class="node" transform="translate(83.70548209351995,114.36075274388885)"><circle class="outline" cx="0" cy="0" r="25" fill="#57C7E3" stroke="#23b3d7" stroke-width="2px"/><text text-anchor="middle" pointer-events="none" font-family="sans-serif" dy="1.5625" font-size="25" fill="#2A2C34"/><text text-anchor="middle" pointer-events="none" font-family="sans-serif" dy="1.5625" font-size="25" fill="#2A2C34"/><text text-anchor="middle" pointer-events="none" x="0" y="0" font-size="10px" fill="#2A2C34" font-family="sans-serif"> The</text><text text-anchor="middle" pointer-events="none" x="0" y="10" font-size="10px" fill="#2A2C34" font-family="sans-serif"> Matrix</text></g><g class="node" transform="translate(193.12136016210314,91.10051044443051)"><circle class="outline" cx="0" cy="0" r="25" fill="#F79767" stroke="#f36924" stroke-width="2px"/><text text-anchor="middle" pointer-events="none" font-family="sans-serif" dy="1.5625" font-size="25" fill="#FFFFFF"/><text text-anchor="middle" pointer-events="none" font-family="sans-serif" dy="1.5625" font-size="25" fill="#FFFFFF"/><text text-anchor="middle" pointer-events="none" x="0" y="0" font-size="10px" fill="#FFFFFF" font-family="sans-serif"> Hugo</text><text text-anchor="middle" pointer-events="none" x="0" y="10" font-size="10px" fill="#FFFFFF" font-family="sans-serif"> Weaving</text></g><g class="node" transform="translate(118.88834311467421,8.205837207759203)"><circle class="outline" cx="0" cy="0" r="25" fill="#F79767" stroke="#f36924" stroke-width="2px"/><text text-anchor="middle" pointer-events="none" font-family="sans-serif" dy="1.5625" font-size="25" fill="#FFFFFF"/><text text-anchor="middle" pointer-events="none" font-family="sans-serif" dy="1.5625" font-size="25" fill="#FFFFFF"/><text text-anchor="middle" pointer-events="none" x="0" y="0" font-size="10px" fill="#FFFFFF" font-family="sans-serif"> Laurence</text><text text-anchor="middle" pointer-events="none" x="0" y="10" font-size="10px" fill="#FFFFFF" font-family="sans-serif"> Fishbur…</text></g><g class="node" transform="translate(-0.06096665363002188,40.151797693680784)"><circle class="outline" cx="0" cy="0" r="25" fill="#F79767" stroke="#f36924" stroke-width="2px"/><text text-anchor="middle" pointer-events="none" font-family="sans-serif" dy="1.5625" font-size="25" fill="#FFFFFF"/><text text-anchor="middle" pointer-events="none" x="0" y="5" font-size="10px" fill="#FFFFFF" font-family="sans-serif"> Carrie-A…</text></g><g class="node" transform="translate(2.245145758745491,187.57350659937788)"><circle class="outline" cx="0" cy="0" r="25" fill="#F79767" stroke="#f36924" stroke-width="2px"/><text text-anchor="middle" pointer-events="none" font-family="sans-serif" dy="1.5625" font-size="25" fill="#FFFFFF"/><text text-anchor="middle" pointer-events="none" font-family="sans-serif" dy="1.5625" font-size="25" fill="#FFFFFF"/><text text-anchor="middle" pointer-events="none" x="0" y="0" font-size="10px" fill="#FFFFFF" font-family="sans-serif"> Keanu</text><text text-anchor="middle" pointer-events="none" x="0" y="10" font-size="10px" fill="#FFFFFF" font-family="sans-serif"> Reeves</text></g></g></svg>