<svg xmlns="http://www.w3.org/2000/svg" width="421.3626403808594" height="282.76654052734375" viewBox="-128.96224975585938 -47.45178985595703 421.3626403808594 282.76654052734375"><title>Neo4j Graph Visualization</title><desc>Created using Neo4j (http://www.neo4j.com/)</desc><g class="layer relationships"><g class="relationship" transform="translate(-99.96225795760802 80.07086125846759) rotate(393.1995714752038)"><path class="outline" fill="#A5ABB6" stroke="none" d="M 25 0.5 L 88.99798129434754 0.5 L 88.99798129434754 -0.5 L 25 -0.5 Z M 134.56048129434754 0.5 L 198.55846258869508 0.5 L 198.55846258869508 3.5 L 205.55846258869508 0 L 198.55846258869508 -3.5 L 198.55846258869508 -0.5 L 134.56048129434754 -0.5 Z"/><text text-anchor="middle" pointer-events="none" font-size="8px" fill="#000000" x="111.77923129434754" y="3" font-family="sans-serif">ACTED_IN</text></g><g class="relationship" transform="translate(-99.96225795760802 80.07086125846759) rotate(338.8911828777939)"><path class="outline" fill="#A5ABB6" stroke="none" d="M 25 0.5 L 75.43056985678959 0.5 L 75.43056985678959 -0.5 L 25 -0.5 Z M 120.99306985678959 0.5 L 171.42363971357918 0.5 L 171.42363971357918 3.5 L 178.42363971357918 0 L 171.42363971357918 -3.5 L 171.42363971357918 -0.5 L 120.99306985678959 -0.5 Z"/><text text-anchor="middle" pointer-events="none" font-size="8px" fill="#000000" x="98.21181985678959" y="3" font-family="sans-serif">ACTED_IN</text></g><g class="relationship" transform="translate(-99.96225795760802 80.07086125846759) rotate(356.53479173559504)"><path class="outline" fill="#A5ABB6" stroke="none" d="M 25 0.5 L 71.85038796949108 0.5 L 71.85038796949108 -0.5 L 25 -0.5 Z M 117.41288796949108 0.5 L 164.26327593898216 0.5 L 164.26327593898216 3.5 L 171.26327593898216 0 L 164.26327593898216 -3.5 L 164.26327593898216 -0.5 L 117.41288796949108 -0.5 Z"/><text text-anchor="middle" pointer-events="none" font-size="8px" fill="#000000" x="94.63163796949108" y="3" font-family="sans-serif">ACTED_IN</text></g><g class="relationship" transform="translate(-99.96225795760802 80.07086125846759) rotate(376.5573402208007)"><path class="outline" fill="#A5ABB6" stroke="none" d="M 25 0.5 L 75.85791806238404 0.5 L 75.85791806238404 -0.5 L 25 -0.5 Z M 121.42041806238404 0.5 L 172.2783361247681 0.5 L 172.2783361247681 3.5 L 179.2783361247681 0 L 172.2783361247681 -3.5 L 172.2783361247681 -0.5 L 121.42041806238404 -0.5 Z"/><text text-anchor="middle" pointer-events="none" font-size="8px" fill="#000000" x="98.63916806238404" y="3" font-family="sans-serif">ACTED_IN</text></g><g class="relationship" transform="translate(263.4004037185507 165.94962939531655) rotate(526.6760794349582)"><path class="outline" fill="#A5ABB6" stroke="none" d="M 25 0.5 L 60.631322107720635 0.5 L 60.631322107720635 -0.5 L 25 -0.5 Z M 107.52194710772064 0.5 L 143.15326921544127 0.5 L 143.15326921544127 3.5 L 150.15326921544127 0 L 143.15326921544127 -3.5 L 143.15326921544127 -0.5 L 107.52194710772064 -0.5 Z"/><text text-anchor="middle" pointer-events="none" font-size="8px" fill="#000000" x="84.07663460772064" y="3" transform="rotate(180 84.07663460772064 0)" font-family="sans-serif">DIRECTED</text></g><g class="relationship selected" transform="translate(261.79713418793733 -18.451790998991513) rotate(531.6440441295853)"><path class="outline" fill="#A5ABB6" stroke="none" d="M 24.018736134675446,6.953439040707552 L 24.277555179777966,5.987513214418485 A 237.5805707398722 237.5805707398722 0 0 0 57.614624854130014,12.408893487110532 L 57.496124815630324,13.401847534826516 A 238.5805707398722 238.5805707398722 0 0 1 24.018736134675446,6.953439040707552 Z M 109.28130171123678,13.92136434577094 L 109.18274645166667,12.926232766123775 A 237.5805707398722 237.5805707398722 0 0 0 142.64193401446096,7.174962757085384 L 141.92376919731583,4.262191002310402 L 149.5580955784601,5.984706809542615 L 143.59948710398777,11.058658430118692 L 142.88132228684265,8.14588667534371 A 238.5805707398722 238.5805707398722 0 0 1 109.28130171123678,13.92136434577094"/><text text-anchor="middle" pointer-events="none" font-size="8px" fill="#000000" x="83.3795911360323" y="17.570895055080683" transform="rotate(180 83.3795911360323 14.570895055080683)" font-family="sans-serif">PRODUCED</text></g><g class="relationship" transform="translate(261.79713418793733 -18.451790998991513) rotate(531.6440441295853)"><path class="outline" fill="#A5ABB6" stroke="none" d="M 24.018736134675446,-6.953439040707552 L 24.277555179777966,-5.987513214418485 A 237.5805707398722 237.5805707398722 0 0 1 65.5598593042859,-13.221888020787276 L 65.47480153939222,-14.218264042493587 A 238.5805707398722 238.5805707398722 0 0 0 24.018736134675446,-6.953439040707552 Z M 101.28785165723976,-14.577546035966805 L 101.2228005930415,-13.57966409954011 A 237.5805707398722 237.5805707398722 0 0 1 142.64193401446096,-7.174962757085384 L 141.92376919731583,-4.262191002310402 L 149.5580955784601,-5.984706809542615 L 143.59948710398777,-11.058658430118692 L 142.88132228684265,-8.14588667534371 A 238.5805707398722 238.5805707398722 0 0 0 101.28785165723976,-14.577546035966805"/><text text-anchor="middle" pointer-events="none" font-size="8px" fill="#000000" x="83.37959113603223" y="-11.570895055080683" transform="rotate(180 83.37959113603223 -14.570895055080683)" font-family="sans-serif">WROTE</text></g><g class="relationship" transform="translate(261.79713418793733 -18.451790998991513) rotate(486.91236420973746)"><path class="outline" fill="#A5ABB6" stroke="none" d="M 25 0.5 L 113.6119501229872 0.5 L 113.6119501229872 -0.5 L 25 -0.5 Z M 160.5025751229872 0.5 L 249.1145252459744 0.5 L 249.1145252459744 3.5 L 256.1145252459744 0 L 249.1145252459744 -3.5 L 249.1145252459744 -0.5 L 160.5025751229872 -0.5 Z"/><text text-anchor="middle" pointer-events="none" font-size="8px" fill="#000000" x="137.0572626229872" y="3" transform="rotate(180 137.0572626229872 0)" font-family="sans-serif">DIRECTED</text></g><g class="relationship" transform="translate(261.79713418793733 -18.451790998991513) rotate(512.4127117394139)"><path class="outline" fill="#A5ABB6" stroke="none" d="M 25 0.5 L 66.61993626276579 0.5 L 66.61993626276579 -0.5 L 25 -0.5 Z M 113.51056126276579 0.5 L 155.13049752553158 0.5 L 155.13049752553158 3.5 L 162.13049752553158 0 L 155.13049752553158 -3.5 L 155.13049752553158 -0.5 L 113.51056126276579 -0.5 Z"/><text text-anchor="middle" pointer-events="none" font-size="8px" fill="#000000" x="90.06524876276579" y="3" transform="rotate(180 90.06524876276579 0)" font-family="sans-serif">DIRECTED</text></g><g class="relationship" transform="translate(261.79713418793733 -18.451790998991513) rotate(496.63568377351635)"><path class="outline" fill="#A5ABB6" stroke="none" d="M 25 0.5 L 87.18872779935555 0.5 L 87.18872779935555 -0.5 L 25 -0.5 Z M 134.07935279935555 0.5 L 196.2680805987111 0.5 L 196.2680805987111 3.5 L 203.2680805987111 0 L 196.2680805987111 -3.5 L 196.2680805987111 -0.5 L 134.07935279935555 -0.5 Z"/><text text-anchor="middle" pointer-events="none" font-size="8px" fill="#000000" x="110.63404029935555" y="3" transform="rotate(180 110.63404029935555 0)" font-family="sans-serif">DIRECTED</text></g><g class="relationship" transform="translate(259.3348008235147 93.87908662968644) rotate(207.1855691620699)"><path class="outline" fill="#A5ABB6" stroke="none" d="M 24.018736134675446,6.953439040707552 L 24.277555179777966,5.987513214418485 A 270.3190519125774 270.3190519125774 0 0 0 65.96855473171104,13.71582138769486 L 65.86396454786325,14.710336794032344 A 271.3190519125774 271.3190519125774 0 0 1 24.018736134675446,6.953439040707552 Z M 117.65964682275782,15.18586667432777 L 117.57333378064423,14.189598608613949 A 270.3190519125774 270.3190519125774 0 0 0 159.39919913939883,7.228048648171838 L 158.67607668898796,4.316503710907126 L 166.3133244014183,6.026020420090591 L 160.3633624066133,11.110108564524788 L 159.64023995620244,8.198563627260075 A 271.3190519125774 271.3190519125774 0 0 1 117.65964682275782,15.18586667432777"/><text text-anchor="middle" pointer-events="none" font-size="8px" fill="#000000" x="91.75502196094091" y="18.686998797538422" transform="rotate(180 91.75502196094091 15.686998797538422)" font-family="sans-serif">PRODUCED</text></g><g class="relationship" transform="translate(259.3348008235147 93.87908662968644) rotate(207.1855691620699)"><path class="outline" fill="#A5ABB6" stroke="none" d="M 24.018736134675446,-6.953439040707552 L 24.277555179777966,-5.987513214418485 A 270.3190519125774 270.3190519125774 0 0 1 73.92505674361028,-14.433883136306633 L 73.84990030464877,-15.431054891664076 A 271.3190519125774 271.3190519125774 0 0 0 24.018736134675446,-6.953439040707552 Z M 109.66182466253562,-15.759839828073893 L 109.6049891749979,-14.76145627083929 A 270.3190519125774 270.3190519125774 0 0 1 159.39919913939883,-7.228048648171838 L 158.67607668898796,-4.316503710907126 L 166.3133244014183,-6.026020420090591 L 160.3633624066133,-11.110108564524788 L 159.64023995620244,-8.198563627260075 A 271.3190519125774 271.3190519125774 0 0 0 109.66182466253562,-15.759839828073893"/><text text-anchor="middle" pointer-events="none" font-size="8px" fill="#000000" x="91.75502196094082" y="-12.686998797538422" transform="rotate(180 91.75502196094082 -15.686998797538422)" font-family="sans-serif">WROTE</text></g><g class="relationship" transform="translate(259.3348008235147 93.87908662968644) rotate(505.9489881802671)"><path class="outline" fill="#A5ABB6" stroke="none" d="M 25 0.5 L 73.45608345011749 0.5 L 73.45608345011749 -0.5 L 25 -0.5 Z M 120.34670845011749 0.5 L 168.80279190023498 0.5 L 168.80279190023498 3.5 L 175.80279190023498 0 L 168.80279190023498 -3.5 L 168.80279190023498 -0.5 L 120.34670845011749 -0.5 Z"/><text text-anchor="middle" pointer-events="none" font-size="8px" fill="#000000" x="96.90139595011749" y="3" transform="rotate(180 96.90139595011749 0)" font-family="sans-serif">DIRECTED</text></g><g class="relationship" transform="translate(259.3348008235147 93.87908662968644) rotate(188.92883543480184)"><path class="outline" fill="#A5ABB6" stroke="none" d="M 25 0.5 L 55.75314437679204 0.5 L 55.75314437679204 -0.5 L 25 -0.5 Z M 102.64376937679204 0.5 L 133.39691375358407 0.5 L 133.39691375358407 3.5 L 140.39691375358407 0 L 133.39691375358407 -3.5 L 133.39691375358407 -0.5 L 102.64376937679204 -0.5 Z"/><text text-anchor="middle" pointer-events="none" font-size="8px" fill="#000000" x="79.19845687679204" y="3" transform="rotate(180 79.19845687679204 0)" font-family="sans-serif">DIRECTED</text></g><g class="relationship" transform="translate(259.3348008235147 93.87908662968644) rotate(524.8042640981316)"><path class="outline" fill="#A5ABB6" stroke="none" d="M 25 0.5 L 57.76091565131141 0.5 L 57.76091565131141 -0.5 L 25 -0.5 Z M 104.65154065131141 0.5 L 137.41245630262281 0.5 L 137.41245630262281 3.5 L 144.41245630262281 0 L 137.41245630262281 -3.5 L 137.41245630262281 -0.5 L 104.65154065131141 -0.5 Z"/><text text-anchor="middle" pointer-events="none" font-size="8px" fill="#000000" x="81.20622815131141" y="3" transform="rotate(180 81.20622815131141 0)" font-family="sans-serif">DIRECTED</text></g><g class="relationship" transform="translate(-75.00896693037943 -11.954963381387259) rotate(366.4951490690711)"><path class="outline" fill="#A5ABB6" stroke="none" d="M 25 0.5 L 55.99717964445945 0.5 L 55.99717964445945 -0.5 L 25 -0.5 Z M 102.88780464445945 0.5 L 133.8849842889189 0.5 L 133.8849842889189 3.5 L 140.8849842889189 0 L 133.8849842889189 -3.5 L 133.8849842889189 -0.5 L 102.88780464445945 -0.5 Z"/><text text-anchor="middle" pointer-events="none" font-size="8px" fill="#000000" x="79.44249214445945" y="3" font-family="sans-serif">DIRECTED</text></g></g><g class="layer nodes"><g class="node" transform="translate(-99.96225795760802,80.07086125846759)"><circle class="outline" cx="0" cy="0" r="25" fill="#F79767" stroke="#f36924" stroke-width="2px"/><text text-anchor="middle" pointer-events="none" font-family="sans-serif" dy="1.5625" font-size="25" fill="#FFFFFF"/><text text-anchor="middle" pointer-events="none" font-family="sans-serif" dy="1.5625" font-size="25" fill="#FFFFFF"/><text text-anchor="middle" pointer-events="none" x="0" y="0" font-size="10px" fill="#FFFFFF" font-family="sans-serif"> Hugo</text><text text-anchor="middle" pointer-events="none" x="0" y="10" font-size="10px" fill="#FFFFFF" font-family="sans-serif"> Weaving</text></g><g class="node" transform="translate(92.96177990732699,206.314753329141)"><circle class="outline" cx="0" cy="0" r="25" fill="#57C7E3" stroke="#23b3d7" stroke-width="2px"/><text text-anchor="middle" pointer-events="none" font-family="sans-serif" dy="1.5625" font-size="25" fill="#2A2C34"/><text text-anchor="middle" pointer-events="none" font-family="sans-serif" dy="1.5625" font-size="25" fill="#2A2C34"/><text text-anchor="middle" pointer-events="none" x="0" y="0" font-size="10px" fill="#2A2C34" font-family="sans-serif"> Cloud</text><text text-anchor="middle" pointer-events="none" x="0" y="10" font-size="10px" fill="#2A2C34" font-family="sans-serif"> Atlas</text></g><g class="node" transform="translate(263.4004037185507,165.94962939531655)"><circle class="outline" cx="0" cy="0" r="25" fill="#F79767" stroke="#f36924" stroke-width="2px"/><text text-anchor="middle" pointer-events="none" font-family="sans-serif" dy="1.5625" font-size="25" fill="#FFFFFF"/><text text-anchor="middle" pointer-events="none" font-family="sans-serif" dy="1.5625" font-size="25" fill="#FFFFFF"/><text text-anchor="middle" pointer-events="none" x="0" y="0" font-size="10px" fill="#FFFFFF" font-family="sans-serif"> Tom</text><text text-anchor="middle" pointer-events="none" x="0" y="10" font-size="10px" fill="#FFFFFF" font-family="sans-serif"> Tykwer</text></g><g class="node" transform="translate(261.79713418793733,-18.451790998991513)"><circle class="outline" cx="0" cy="0" r="25" fill="#F79767" stroke="#f36924" stroke-width="2px"/><text text-anchor="middle" pointer-events="none" font-family="sans-serif" dy="1.5625" font-size="25" fill="#FFFFFF"/><text text-anchor="middle" pointer-events="none" font-family="sans-serif" dy="1.5625" font-size="25" fill="#FFFFFF"/><text text-anchor="middle" pointer-events="none" x="0" y="0" font-size="10px" fill="#FFFFFF" font-family="sans-serif"> Lana</text><text text-anchor="middle" pointer-events="none" x="0" y="10" font-size="10px" fill="#FFFFFF" font-family="sans-serif"> Wacho…</text></g><g class="node" transform="translate(259.3348008235147,93.87908662968644)"><circle class="outline" cx="0" cy="0" r="25" fill="#F79767" stroke="#f36924" stroke-width="2px"/><text text-anchor="middle" pointer-events="none" font-family="sans-serif" dy="1.5625" font-size="25" fill="#FFFFFF"/><text text-anchor="middle" pointer-events="none" font-family="sans-serif" dy="1.5625" font-size="25" fill="#FFFFFF"/><text text-anchor="middle" pointer-events="none" x="0" y="0" font-size="10px" fill="#FFFFFF" font-family="sans-serif"> Lilly</text><text text-anchor="middle" pointer-events="none" x="0" y="10" font-size="10px" fill="#FFFFFF" font-family="sans-serif"> Wacho…</text></g><g class="node" transform="translate(89.8112740421628,6.8097955642528945)"><circle class="outline" cx="0" cy="0" r="25" fill="#57C7E3" stroke="#23b3d7" stroke-width="2px"/><text text-anchor="middle" pointer-events="none" font-family="sans-serif" dy="1.5625" font-size="25" fill="#2A2C34"/><text text-anchor="middle" pointer-events="none" font-family="sans-serif" dy="1.5625" font-size="25" fill="#2A2C34"/><text text-anchor="middle" pointer-events="none" x="0" y="0" font-size="10px" fill="#2A2C34" font-family="sans-serif"> V for</text><text text-anchor="middle" pointer-events="none" x="0" y="10" font-size="10px" fill="#2A2C34" font-family="sans-serif"> Vendetta</text></g><g class="node" transform="translate(-75.00896693037943,-11.954963381387259)"><circle class="outline" cx="0" cy="0" r="25" fill="#F79767" stroke="#f36924" stroke-width="2px"/><text text-anchor="middle" pointer-events="none" font-family="sans-serif" dy="1.5625" font-size="25" fill="#FFFFFF"/><text text-anchor="middle" pointer-events="none" font-family="sans-serif" dy="1.5625" font-size="25" fill="#FFFFFF"/><text text-anchor="middle" pointer-events="none" x="0" y="0" font-size="10px" fill="#FFFFFF" font-family="sans-serif"> James</text><text text-anchor="middle" pointer-events="none" x="0" y="10" font-size="10px" fill="#FFFFFF" font-family="sans-serif"> Marshall</text></g><g class="node" transform="translate(95.94218687520059,68.20823182608225)"><circle class="outline" cx="0" cy="0" r="25" fill="#57C7E3" stroke="#23b3d7" stroke-width="2px"/><text text-anchor="middle" pointer-events="none" font-family="sans-serif" dy="1.5625" font-size="25" fill="#2A2C34"/><text text-anchor="middle" pointer-events="none" font-family="sans-serif" dy="1.5625" font-size="25" fill="#2A2C34"/><text text-anchor="middle" pointer-events="none" font-family="sans-serif" dy="1.5625" font-size="25" fill="#2A2C34"/><text text-anchor="middle" pointer-events="none" x="0" y="-5" font-size="10px" fill="#2A2C34" font-family="sans-serif"> The</text><text text-anchor="middle" pointer-events="none" x="0" y="5" font-size="10px" fill="#2A2C34" font-family="sans-serif"> Matrix</text><text text-anchor="middle" pointer-events="none" x="0" y="15" font-size="10px" fill="#2A2C34" font-family="sans-serif"> Revol…</text></g><g class="node" transform="translate(95.84568086585936,138.28503224465422)"><circle class="outline" cx="0" cy="0" r="25" fill="#57C7E3" stroke="#23b3d7" stroke-width="2px"/><text text-anchor="middle" pointer-events="none" font-family="sans-serif" dy="1.5625" font-size="25" fill="#2A2C34"/><text text-anchor="middle" pointer-events="none" font-family="sans-serif" dy="1.5625" font-size="25" fill="#2A2C34"/><text text-anchor="middle" pointer-events="none" font-family="sans-serif" dy="1.5625" font-size="25" fill="#2A2C34"/><text text-anchor="middle" pointer-events="none" x="0" y="-5" font-size="10px" fill="#2A2C34" font-family="sans-serif"> The</text><text text-anchor="middle" pointer-events="none" x="0" y="5" font-size="10px" fill="#2A2C34" font-family="sans-serif"> Matrix</text><text text-anchor="middle" pointer-events="none" x="0" y="15" font-size="10px" fill="#2A2C34" font-family="sans-serif"> Reloa…</text></g></g></svg>