<svg xmlns="http://www.w3.org/2000/svg" width="550.3380737304688" height="503.28729248046875" viewBox="-255.2570343017578 -183.14642333984375 550.3380737304688 503.28729248046875"><title>Neo4j Graph Visualization</title><desc>Created using Neo4j (http://www.neo4j.com/)</desc><g class="layer relationships"><g class="relationship" transform="translate(-5.973835089609498 26.919335620362123) rotate(435.03050065528794)"><path class="outline" fill="#A5ABB6" stroke="none" d="M 25 0.5 L 45.37431763517418 0.5 L 45.37431763517418 -0.5 L 25 -0.5 Z M 90.93681763517418 0.5 L 111.31113527034836 0.5 L 111.31113527034836 3.5 L 118.31113527034836 0 L 111.31113527034836 -3.5 L 111.31113527034836 -0.5 L 90.93681763517418 -0.5 Z"/><text text-anchor="middle" pointer-events="none" font-size="8px" fill="#000000" x="68.15556763517418" y="3" font-family="sans-serif">ACTED_IN</text></g><g class="relationship" transform="translate(-5.973835089609498 26.919335620362123) rotate(364.80465065902087)"><path class="outline" fill="#A5ABB6" stroke="none" d="M 25 0.5 L 46.444188168849024 0.5 L 46.444188168849024 -0.5 L 25 -0.5 Z M 92.00668816884902 0.5 L 113.45087633769805 0.5 L 113.45087633769805 3.5 L 120.45087633769805 0 L 113.45087633769805 -3.5 L 113.45087633769805 -0.5 L 92.00668816884902 -0.5 Z"/><text text-anchor="middle" pointer-events="none" font-size="8px" fill="#000000" x="69.22543816884902" y="3" font-family="sans-serif">ACTED_IN</text></g><g class="relationship" transform="translate(-5.973835089609498 26.919335620362123) rotate(315.6431724758791)"><path class="outline" fill="#A5ABB6" stroke="none" d="M 25 0.5 L 56.72202141994262 0.5 L 56.72202141994262 -0.5 L 25 -0.5 Z M 102.28452141994262 0.5 L 134.00654283988524 0.5 L 134.00654283988524 3.5 L 141.00654283988524 0 L 134.00654283988524 -3.5 L 134.00654283988524 -0.5 L 102.28452141994262 -0.5 Z"/><text text-anchor="middle" pointer-events="none" font-size="8px" fill="#000000" x="79.50327141994262" y="3" font-family="sans-serif">ACTED_IN</text></g><g class="relationship" transform="translate(-5.973835089609498 26.919335620362123) rotate(197.21547376807672)"><path class="outline" fill="#A5ABB6" stroke="none" d="M 25 0.5 L 89.02630429184246 0.5 L 89.02630429184246 -0.5 L 25 -0.5 Z M 134.58880429184245 0.5 L 198.61510858368493 0.5 L 198.61510858368493 3.5 L 205.61510858368493 0 L 198.61510858368493 -3.5 L 198.61510858368493 -0.5 L 134.58880429184245 -0.5 Z"/><text text-anchor="middle" pointer-events="none" font-size="8px" fill="#000000" x="111.80755429184246" y="3" transform="rotate(180 111.80755429184246 0)" font-family="sans-serif">ACTED_IN</text></g><g class="relationship" transform="translate(-5.973835089609498 26.919335620362123) rotate(509.037401352417)"><path class="outline" fill="#A5ABB6" stroke="none" d="M 25 0.5 L 30.767262900344264 0.5 L 30.767262900344264 -0.5 L 25 -0.5 Z M 76.32976290034426 0.5 L 82.09702580068853 0.5 L 82.09702580068853 3.5 L 89.09702580068853 0 L 82.09702580068853 -3.5 L 82.09702580068853 -0.5 L 76.32976290034426 -0.5 Z"/><text text-anchor="middle" pointer-events="none" font-size="8px" fill="#000000" x="53.548512900344264" y="3" transform="rotate(180 53.548512900344264 0)" font-family="sans-serif">ACTED_IN</text></g><g class="relationship" transform="translate(-22.450710700000943 276.3094069480117) rotate(295.7426930500524)"><path class="outline" fill="#A5ABB6" stroke="none" d="M 25 0.5 L 35.30185906914977 0.5 L 35.30185906914977 -0.5 L 25 -0.5 Z M 80.86435906914977 0.5 L 91.16621813829954 0.5 L 91.16621813829954 3.5 L 98.16621813829954 0 L 91.16621813829954 -3.5 L 91.16621813829954 -0.5 L 80.86435906914977 -0.5 Z"/><text text-anchor="middle" pointer-events="none" font-size="8px" fill="#000000" x="58.08310906914977" y="3" font-family="sans-serif">ACTED_IN</text></g><g class="relationship" transform="translate(131.12300558404303 246.05462971060334) rotate(218.87716347381422)"><path class="outline" fill="#A5ABB6" stroke="none" d="M 25 0.5 L 37.99603749711177 0.5 L 37.99603749711177 -0.5 L 25 -0.5 Z M 83.55853749711177 0.5 L 96.55457499422354 0.5 L 96.55457499422354 3.5 L 103.55457499422354 0 L 96.55457499422354 -3.5 L 96.55457499422354 -0.5 L 83.55853749711177 -0.5 Z"/><text text-anchor="middle" pointer-events="none" font-size="8px" fill="#000000" x="60.77728749711177" y="3" transform="rotate(180 60.77728749711177 0)" font-family="sans-serif">ACTED_IN</text></g><g class="relationship" transform="translate(64.30403057628995 291.14086906612994) rotate(255.18764457507092)"><path class="outline" fill="#A5ABB6" stroke="none" d="M 25 0.5 L 38.76736791458855 0.5 L 38.76736791458855 -0.5 L 25 -0.5 Z M 84.32986791458855 0.5 L 98.0972358291771 0.5 L 98.0972358291771 3.5 L 105.0972358291771 0 L 98.0972358291771 -3.5 L 98.0972358291771 -0.5 L 84.32986791458855 -0.5 Z"/><text text-anchor="middle" pointer-events="none" font-size="8px" fill="#000000" x="61.54861791458855" y="3" transform="rotate(180 61.54861791458855 0)" font-family="sans-serif">ACTED_IN</text></g><g class="relationship" transform="translate(212.32039045994483 142.09770535441754) rotate(234.54116297868683)"><path class="outline" fill="#A5ABB6" stroke="none" d="M 25 0.5 L 36.94249435103811 0.5 L 36.94249435103811 -0.5 L 25 -0.5 Z M 82.5049943510381 0.5 L 94.44748870207621 0.5 L 94.44748870207621 3.5 L 101.44748870207621 0 L 94.44748870207621 -3.5 L 94.44748870207621 -0.5 L 82.5049943510381 -0.5 Z"/><text text-anchor="middle" pointer-events="none" font-size="8px" fill="#000000" x="59.72374435103811" y="3" transform="rotate(180 59.72374435103811 0)" font-family="sans-serif">ACTED_IN</text></g><g class="relationship" transform="translate(263.4837675665362 86.98412358998367) rotate(201.03371653685537)"><path class="outline" fill="#A5ABB6" stroke="none" d="M 25 0.5 L 40.42215507031118 0.5 L 40.42215507031118 -0.5 L 25 -0.5 Z M 85.98465507031118 0.5 L 101.40681014062235 0.5 L 101.40681014062235 3.5 L 108.40681014062235 0 L 101.40681014062235 -3.5 L 101.40681014062235 -0.5 L 85.98465507031118 -0.5 Z"/><text text-anchor="middle" pointer-events="none" font-size="8px" fill="#000000" x="63.20340507031118" y="3" transform="rotate(180 63.20340507031118 0)" font-family="sans-serif">ACTED_IN</text></g><g class="relationship" transform="translate(221.35398325444905 -56.473723443820106) rotate(490.76191386994617)"><path class="outline" fill="#A5ABB6" stroke="none" d="M 25 0.5 L 36.81100662146707 0.5 L 36.81100662146707 -0.5 L 25 -0.5 Z M 82.37350662146707 0.5 L 94.18451324293414 0.5 L 94.18451324293414 3.5 L 101.18451324293414 0 L 94.18451324293414 -3.5 L 94.18451324293414 -0.5 L 82.37350662146707 -0.5 Z"/><text text-anchor="middle" pointer-events="none" font-size="8px" fill="#000000" x="59.59225662146707" y="3" transform="rotate(180 59.59225662146707 0)" font-family="sans-serif">ACTED_IN</text></g><g class="relationship" transform="translate(266.08105068168317 11.065070335225542) rotate(527.5617503111591)"><path class="outline" fill="#A5ABB6" stroke="none" d="M 25 0.5 L 38.80394084049024 0.5 L 38.80394084049024 -0.5 L 25 -0.5 Z M 84.36644084049024 0.5 L 98.17038168098048 0.5 L 98.17038168098048 3.5 L 105.17038168098048 0 L 98.17038168098048 -3.5 L 98.17038168098048 -0.5 L 84.36644084049024 -0.5 Z"/><text text-anchor="middle" pointer-events="none" font-size="8px" fill="#000000" x="61.58519084049024" y="3" transform="rotate(180 61.58519084049024 0)" font-family="sans-serif">ACTED_IN</text></g><g class="relationship" transform="translate(-46.10450847941293 -17.716639549664112) rotate(335.78667731750124)"><path class="outline" fill="#A5ABB6" stroke="none" d="M 25 0.5 L 60.791657415144385 0.5 L 60.791657415144385 -0.5 L 25 -0.5 Z M 106.35415741514439 0.5 L 142.14581483028877 0.5 L 142.14581483028877 3.5 L 149.14581483028877 0 L 142.14581483028877 -3.5 L 142.14581483028877 -0.5 L 106.35415741514439 -0.5 Z"/><text text-anchor="middle" pointer-events="none" font-size="8px" fill="#000000" x="83.57290741514439" y="3" font-family="sans-serif">ACTED_IN</text></g><g class="relationship" transform="translate(-46.10450847941293 -17.716639549664112) rotate(187.46896477311014)"><path class="outline" fill="#A5ABB6" stroke="none" d="M 25 0.5 L 64.565811653193 0.5 L 64.565811653193 -0.5 L 25 -0.5 Z M 110.128311653193 0.5 L 149.694123306386 0.5 L 149.694123306386 3.5 L 156.694123306386 0 L 149.694123306386 -3.5 L 149.694123306386 -0.5 L 110.128311653193 -0.5 Z"/><text text-anchor="middle" pointer-events="none" font-size="8px" fill="#000000" x="87.347061653193" y="3" transform="rotate(180 87.347061653193 0)" font-family="sans-serif">ACTED_IN</text></g><g class="relationship" transform="translate(-46.10450847941293 -17.716639549664112) rotate(479.18103700113977)"><path class="outline" fill="#A5ABB6" stroke="none" d="M 25 0.5 L 32.8977598370638 0.5 L 32.8977598370638 -0.5 L 25 -0.5 Z M 78.4602598370638 0.5 L 86.3580196741276 0.5 L 86.3580196741276 3.5 L 93.3580196741276 0 L 86.3580196741276 -3.5 L 86.3580196741276 -0.5 L 78.4602598370638 -0.5 Z"/><text text-anchor="middle" pointer-events="none" font-size="8px" fill="#000000" x="55.6790098370638" y="3" transform="rotate(180 55.6790098370638 0)" font-family="sans-serif">ACTED_IN</text></g><g class="relationship" transform="translate(-87.61998115462917 -60.757781345425855) rotate(351.93659610720226)"><path class="outline" fill="#A5ABB6" stroke="none" d="M 25 0.5 L 74.8893631365793 0.5 L 74.8893631365793 -0.5 L 25 -0.5 Z M 120.4518631365793 0.5 L 170.3412262731586 0.5 L 170.3412262731586 3.5 L 177.3412262731586 0 L 170.3412262731586 -3.5 L 170.3412262731586 -0.5 L 120.4518631365793 -0.5 Z"/><text text-anchor="middle" pointer-events="none" font-size="8px" fill="#000000" x="97.6706131365793" y="3" font-family="sans-serif">ACTED_IN</text></g><g class="relationship" transform="translate(-87.61998115462917 -60.757781345425855) rotate(532.0248399807682)"><path class="outline" fill="#A5ABB6" stroke="none" d="M 25 0.5 L 43.71425053205893 0.5 L 43.71425053205893 -0.5 L 25 -0.5 Z M 89.27675053205893 0.5 L 107.99100106411785 0.5 L 107.99100106411785 3.5 L 114.99100106411785 0 L 107.99100106411785 -3.5 L 107.99100106411785 -0.5 L 89.27675053205893 -0.5 Z"/><text text-anchor="middle" pointer-events="none" font-size="8px" fill="#000000" x="66.49550053205893" y="3" transform="rotate(180 66.49550053205893 0)" font-family="sans-serif">ACTED_IN</text></g><g class="relationship" transform="translate(-87.61998115462917 -60.757781345425855) rotate(456.31245100409336)"><path class="outline" fill="#A5ABB6" stroke="none" d="M 25 0.5 L 47.35398173808976 0.5 L 47.35398173808976 -0.5 L 25 -0.5 Z M 92.91648173808976 0.5 L 115.27046347617951 0.5 L 115.27046347617951 3.5 L 122.27046347617951 0 L 115.27046347617951 -3.5 L 115.27046347617951 -0.5 L 92.91648173808976 -0.5 Z"/><text text-anchor="middle" pointer-events="none" font-size="8px" fill="#000000" x="70.13523173808976" y="3" transform="rotate(180 70.13523173808976 0)" font-family="sans-serif">ACTED_IN</text></g><g class="relationship" transform="translate(-52.950848279471145 -120.15545692742405) rotate(370.6036419555853)"><path class="outline" fill="#A5ABB6" stroke="none" d="M 25 0.5 L 57.99367639612181 0.5 L 57.99367639612181 -0.5 L 25 -0.5 Z M 103.55617639612181 0.5 L 136.54985279224363 0.5 L 136.54985279224363 3.5 L 143.54985279224363 0 L 136.54985279224363 -3.5 L 136.54985279224363 -0.5 L 103.55617639612181 -0.5 Z"/><text text-anchor="middle" pointer-events="none" font-size="8px" fill="#000000" x="80.77492639612181" y="3" font-family="sans-serif">ACTED_IN</text></g><g class="relationship" transform="translate(-52.950848279471145 -120.15545692742405) rotate(515.5437123176295)"><path class="outline" fill="#A5ABB6" stroke="none" d="M 25 0.5 L 68.91291143561025 0.5 L 68.91291143561025 -0.5 L 25 -0.5 Z M 114.47541143561025 0.5 L 158.3883228712205 0.5 L 158.3883228712205 3.5 L 165.3883228712205 0 L 158.3883228712205 -3.5 L 158.3883228712205 -0.5 L 114.47541143561025 -0.5 Z"/><text text-anchor="middle" pointer-events="none" font-size="8px" fill="#000000" x="91.69416143561025" y="3" transform="rotate(180 91.69416143561025 0)" font-family="sans-serif">ACTED_IN</text></g><g class="relationship" transform="translate(-52.950848279471145 -120.15545692742405) rotate(463.88355855523395)"><path class="outline" fill="#A5ABB6" stroke="none" d="M 25 0.5 L 79.70265527223025 0.5 L 79.70265527223025 -0.5 L 25 -0.5 Z M 125.26515527223025 0.5 L 179.9678105444605 0.5 L 179.9678105444605 3.5 L 186.9678105444605 0 L 179.9678105444605 -3.5 L 179.9678105444605 -0.5 L 125.26515527223025 -0.5 Z"/><text text-anchor="middle" pointer-events="none" font-size="8px" fill="#000000" x="102.48390527223025" y="3" transform="rotate(180 102.48390527223025 0)" font-family="sans-serif">ACTED_IN</text></g><g class="relationship" transform="translate(-171.8941210710142 179.24714893480657) rotate(306.0230045444343)"><path class="outline" fill="#A5ABB6" stroke="none" d="M 25 0.5 L 31.600527072310783 0.5 L 31.600527072310783 -0.5 L 25 -0.5 Z M 77.16302707231078 0.5 L 83.76355414462157 0.5 L 83.76355414462157 3.5 L 90.76355414462157 0 L 83.76355414462157 -3.5 L 83.76355414462157 -0.5 L 77.16302707231078 -0.5 Z"/><text text-anchor="middle" pointer-events="none" font-size="8px" fill="#000000" x="54.38177707231078" y="3" font-family="sans-serif">ACTED_IN</text></g></g><g class="layer nodes"><g class="node" transform="translate(-5.973835089609498,26.919335620362123)"><circle class="outline" cx="0" cy="0" r="25" fill="#F79767" stroke="#f36924" stroke-width="2px"/><text text-anchor="middle" pointer-events="none" font-family="sans-serif" dy="1.5625" font-size="25" fill="#FFFFFF"/><text text-anchor="middle" pointer-events="none" font-family="sans-serif" dy="1.5625" font-size="25" fill="#FFFFFF"/><text text-anchor="middle" pointer-events="none" x="0" y="0" font-size="10px" fill="#FFFFFF" font-family="sans-serif"> Hugo</text><text text-anchor="middle" pointer-events="none" x="0" y="10" font-size="10px" fill="#FFFFFF" font-family="sans-serif"> Weaving</text></g><g class="node" transform="translate(31.04412055384155,165.36698801091578)"><circle class="outline" cx="0" cy="0" r="25" fill="#57C7E3" stroke="#23b3d7" stroke-width="2px"/><text text-anchor="middle" pointer-events="none" font-family="sans-serif" dy="1.5625" font-size="25" fill="#2A2C34"/><text text-anchor="middle" pointer-events="none" font-family="sans-serif" dy="1.5625" font-size="25" fill="#2A2C34"/><text text-anchor="middle" pointer-events="none" x="0" y="0" font-size="10px" fill="#2A2C34" font-family="sans-serif"> Cloud</text><text text-anchor="middle" pointer-events="none" x="0" y="10" font-size="10px" fill="#2A2C34" font-family="sans-serif"> Atlas</text></g><g class="node" transform="translate(-22.450710700000943,276.3094069480117)"><circle class="outline" cx="0" cy="0" r="25" fill="#F79767" stroke="#f36924" stroke-width="2px"/><text text-anchor="middle" pointer-events="none" font-family="sans-serif" dy="1.5625" font-size="25" fill="#FFFFFF"/><text text-anchor="middle" pointer-events="none" font-family="sans-serif" dy="1.5625" font-size="25" fill="#FFFFFF"/><text text-anchor="middle" pointer-events="none" x="0" y="0" font-size="10px" fill="#FFFFFF" font-family="sans-serif"> Tom</text><text text-anchor="middle" pointer-events="none" x="0" y="10" font-size="10px" fill="#FFFFFF" font-family="sans-serif"> Hanks</text></g><g class="node" transform="translate(131.12300558404303,246.05462971060334)"><circle class="outline" cx="0" cy="0" r="25" fill="#F79767" stroke="#f36924" stroke-width="2px"/><text text-anchor="middle" pointer-events="none" font-family="sans-serif" dy="1.5625" font-size="25" fill="#FFFFFF"/><text text-anchor="middle" pointer-events="none" font-family="sans-serif" dy="1.5625" font-size="25" fill="#FFFFFF"/><text text-anchor="middle" pointer-events="none" x="0" y="0" font-size="10px" fill="#FFFFFF" font-family="sans-serif"> Jim</text><text text-anchor="middle" pointer-events="none" x="0" y="10" font-size="10px" fill="#FFFFFF" font-family="sans-serif"> Broadb…</text></g><g class="node" transform="translate(64.30403057628995,291.14086906612994)"><circle class="outline" cx="0" cy="0" r="25" fill="#F79767" stroke="#f36924" stroke-width="2px"/><text text-anchor="middle" pointer-events="none" font-family="sans-serif" dy="1.5625" font-size="25" fill="#FFFFFF"/><text text-anchor="middle" pointer-events="none" font-family="sans-serif" dy="1.5625" font-size="25" fill="#FFFFFF"/><text text-anchor="middle" pointer-events="none" x="0" y="0" font-size="10px" fill="#FFFFFF" font-family="sans-serif"> Halle</text><text text-anchor="middle" pointer-events="none" x="0" y="10" font-size="10px" fill="#FFFFFF" font-family="sans-serif"> Berry</text></g><g class="node" transform="translate(138.96593616205266,39.102115964773596)"><circle class="outline" cx="0" cy="0" r="25" fill="#57C7E3" stroke="#23b3d7" stroke-width="2px"/><text text-anchor="middle" pointer-events="none" font-family="sans-serif" dy="1.5625" font-size="25" fill="#2A2C34"/><text text-anchor="middle" pointer-events="none" font-family="sans-serif" dy="1.5625" font-size="25" fill="#2A2C34"/><text text-anchor="middle" pointer-events="none" x="0" y="0" font-size="10px" fill="#2A2C34" font-family="sans-serif"> V for</text><text text-anchor="middle" pointer-events="none" x="0" y="10" font-size="10px" fill="#2A2C34" font-family="sans-serif"> Vendetta</text></g><g class="node" transform="translate(212.32039045994483,142.09770535441754)"><circle class="outline" cx="0" cy="0" r="25" fill="#F79767" stroke="#f36924" stroke-width="2px"/><text text-anchor="middle" pointer-events="none" font-family="sans-serif" dy="1.5625" font-size="25" fill="#FFFFFF"/><text text-anchor="middle" pointer-events="none" x="0" y="5" font-size="10px" fill="#FFFFFF" font-family="sans-serif"> John Hurt</text></g><g class="node" transform="translate(263.4837675665362,86.98412358998367)"><circle class="outline" cx="0" cy="0" r="25" fill="#F79767" stroke="#f36924" stroke-width="2px"/><text text-anchor="middle" pointer-events="none" font-family="sans-serif" dy="1.5625" font-size="25" fill="#FFFFFF"/><text text-anchor="middle" pointer-events="none" font-family="sans-serif" dy="1.5625" font-size="25" fill="#FFFFFF"/><text text-anchor="middle" pointer-events="none" x="0" y="0" font-size="10px" fill="#FFFFFF" font-family="sans-serif"> Stephen</text><text text-anchor="middle" pointer-events="none" x="0" y="10" font-size="10px" fill="#FFFFFF" font-family="sans-serif"> Rea</text></g><g class="node" transform="translate(221.35398325444905,-56.473723443820106)"><circle class="outline" cx="0" cy="0" r="25" fill="#F79767" stroke="#f36924" stroke-width="2px"/><text text-anchor="middle" pointer-events="none" font-family="sans-serif" dy="1.5625" font-size="25" fill="#FFFFFF"/><text text-anchor="middle" pointer-events="none" font-family="sans-serif" dy="1.5625" font-size="25" fill="#FFFFFF"/><text text-anchor="middle" pointer-events="none" x="0" y="0" font-size="10px" fill="#FFFFFF" font-family="sans-serif"> Natalie</text><text text-anchor="middle" pointer-events="none" x="0" y="10" font-size="10px" fill="#FFFFFF" font-family="sans-serif"> Portman</text></g><g class="node" transform="translate(266.08105068168317,11.065070335225542)"><circle class="outline" cx="0" cy="0" r="25" fill="#F79767" stroke="#f36924" stroke-width="2px"/><text text-anchor="middle" pointer-events="none" font-family="sans-serif" dy="1.5625" font-size="25" fill="#FFFFFF"/><text text-anchor="middle" pointer-events="none" x="0" y="5" font-size="10px" fill="#FFFFFF" font-family="sans-serif"> Ben Miles</text></g><g class="node" transform="translate(112.72078898557658,-89.13995302686729)"><circle class="outline" cx="0" cy="0" r="25" fill="#57C7E3" stroke="#23b3d7" stroke-width="2px"/><text text-anchor="middle" pointer-events="none" font-family="sans-serif" dy="1.5625" font-size="25" fill="#2A2C34"/><text text-anchor="middle" pointer-events="none" font-family="sans-serif" dy="1.5625" font-size="25" fill="#2A2C34"/><text text-anchor="middle" pointer-events="none" font-family="sans-serif" dy="1.5625" font-size="25" fill="#2A2C34"/><text text-anchor="middle" pointer-events="none" x="0" y="-5" font-size="10px" fill="#2A2C34" font-family="sans-serif"> The</text><text text-anchor="middle" pointer-events="none" x="0" y="5" font-size="10px" fill="#2A2C34" font-family="sans-serif"> Matrix</text><text text-anchor="middle" pointer-events="none" x="0" y="15" font-size="10px" fill="#2A2C34" font-family="sans-serif"> Revol…</text></g><g class="node" transform="translate(-46.10450847941293,-17.716639549664112)"><circle class="outline" cx="0" cy="0" r="25" fill="#F79767" stroke="#f36924" stroke-width="2px"/><text text-anchor="middle" pointer-events="none" font-family="sans-serif" dy="1.5625" font-size="25" fill="#FFFFFF"/><text text-anchor="middle" pointer-events="none" font-family="sans-serif" dy="1.5625" font-size="25" fill="#FFFFFF"/><text text-anchor="middle" pointer-events="none" x="0" y="0" font-size="10px" fill="#FFFFFF" font-family="sans-serif"> Laurence</text><text text-anchor="middle" pointer-events="none" x="0" y="10" font-size="10px" fill="#FFFFFF" font-family="sans-serif"> Fishbur…</text></g><g class="node" transform="translate(-87.61998115462917,-60.757781345425855)"><circle class="outline" cx="0" cy="0" r="25" fill="#F79767" stroke="#f36924" stroke-width="2px"/><text text-anchor="middle" pointer-events="none" font-family="sans-serif" dy="1.5625" font-size="25" fill="#FFFFFF"/><text text-anchor="middle" pointer-events="none" x="0" y="5" font-size="10px" fill="#FFFFFF" font-family="sans-serif"> Carrie-A…</text></g><g class="node selected" transform="translate(-52.950848279471145,-120.15545692742405)"><circle class="outline" cx="0" cy="0" r="25" fill="#F79767" stroke="#f36924" stroke-width="2px"/><text text-anchor="middle" pointer-events="none" font-family="sans-serif" dy="1.5625" font-size="25" fill="#FFFFFF"/><text text-anchor="middle" pointer-events="none" font-family="sans-serif" dy="1.5625" font-size="25" fill="#FFFFFF"/><text text-anchor="middle" pointer-events="none" x="0" y="0" font-size="10px" fill="#FFFFFF" font-family="sans-serif"> Keanu</text><text text-anchor="middle" pointer-events="none" x="0" y="10" font-size="10px" fill="#FFFFFF" font-family="sans-serif"> Reeves</text></g><g class="node" transform="translate(-226.25703303244774,-41.33490242491345)"><circle class="outline" cx="0" cy="0" r="25" fill="#57C7E3" stroke="#23b3d7" stroke-width="2px"/><text text-anchor="middle" pointer-events="none" font-family="sans-serif" dy="1.5625" font-size="25" fill="#2A2C34"/><text text-anchor="middle" pointer-events="none" font-family="sans-serif" dy="1.5625" font-size="25" fill="#2A2C34"/><text text-anchor="middle" pointer-events="none" font-family="sans-serif" dy="1.5625" font-size="25" fill="#2A2C34"/><text text-anchor="middle" pointer-events="none" x="0" y="-5" font-size="10px" fill="#2A2C34" font-family="sans-serif"> The</text><text text-anchor="middle" pointer-events="none" x="0" y="5" font-size="10px" fill="#2A2C34" font-family="sans-serif"> Matrix</text><text text-anchor="middle" pointer-events="none" x="0" y="15" font-size="10px" fill="#2A2C34" font-family="sans-serif"> Reloa…</text></g><g class="node" transform="translate(-103.81241385001879,85.61979390397497)"><circle class="outline" cx="0" cy="0" r="25" fill="#57C7E3" stroke="#23b3d7" stroke-width="2px"/><text text-anchor="middle" pointer-events="none" font-family="sans-serif" dy="1.5625" font-size="25" fill="#2A2C34"/><text text-anchor="middle" pointer-events="none" font-family="sans-serif" dy="1.5625" font-size="25" fill="#2A2C34"/><text text-anchor="middle" pointer-events="none" x="0" y="0" font-size="10px" fill="#2A2C34" font-family="sans-serif"> The</text><text text-anchor="middle" pointer-events="none" x="0" y="10" font-size="10px" fill="#2A2C34" font-family="sans-serif"> Matrix</text></g><g class="node" transform="translate(-171.8941210710142,179.24714893480657)"><circle class="outline" cx="0" cy="0" r="25" fill="#F79767" stroke="#f36924" stroke-width="2px"/><text text-anchor="middle" pointer-events="none" font-family="sans-serif" dy="1.5625" font-size="25" fill="#FFFFFF"/><text text-anchor="middle" pointer-events="none" font-family="sans-serif" dy="1.5625" font-size="25" fill="#FFFFFF"/><text text-anchor="middle" pointer-events="none" x="0" y="0" font-size="10px" fill="#FFFFFF" font-family="sans-serif"> Emil</text><text text-anchor="middle" pointer-events="none" x="0" y="10" font-size="10px" fill="#FFFFFF" font-family="sans-serif"> Eifrem</text></g></g></svg>